<svg width="44" height="44" viewBox="0 0 44 44" fill="none" xmlns="http://www.w3.org/2000/svg">
<path d="M34.8347 25.6668C34.7879 25.6668 34.7412 25.6631 34.6944 25.6558C34.1939 25.5788 33.8511 25.1104 33.9281 24.6099L35.645 13.4485C36.0924 10.5371 35.2499 7.58546 33.3323 5.35061C31.4137 3.11485 28.6243 1.83334 25.679 1.83334H18.3228C15.3775 1.83334 12.5881 3.11485 10.6695 5.35153C8.75185 7.58637 7.90852 10.5381 8.35677 13.4494L10.0737 24.6108C10.1507 25.1113 9.80694 25.5797 9.30735 25.6567C8.80777 25.7282 8.33843 25.3909 8.26235 24.8904L6.54452 13.729C6.01468 10.2878 7.01202 6.79895 9.27802 4.15802C11.544 1.51526 14.8404 0 18.3219 0H25.6781C29.1596 0 32.4559 1.51526 34.7219 4.15711C36.9889 6.79895 37.9853 10.2878 37.4554 13.7281L35.7385 24.8895C35.6698 25.3423 35.2793 25.6668 34.8347 25.6668Z" fill="black"/>
<path d="M11.0026 43.9999C10.4966 43.9999 10.0859 43.5902 10.0859 43.0833V41.2499C10.0859 40.743 10.4966 40.3333 11.0026 40.3333C11.5086 40.3333 11.9193 40.743 11.9193 41.2499V43.0833C11.9193 43.5902 11.5086 43.9999 11.0026 43.9999Z" fill="black"/>
<path d="M33.0026 43.9999C32.4966 43.9999 32.0859 43.5902 32.0859 43.0833V41.2499C32.0859 40.743 32.4966 40.3333 33.0026 40.3333C33.5086 40.3333 33.9193 40.743 33.9193 41.2499V43.0833C33.9193 43.5902 33.5086 43.9999 33.0026 43.9999Z" fill="black"/>
<path d="M33.9167 42.1669H10.0833C6.545 42.1669 3.66667 39.2876 3.66667 35.7502V32.0835C3.66667 31.528 3.33483 31.0303 2.82242 30.8158C1.10733 30.1017 0 28.4397 0 26.5835C0 24.0562 2.05608 22.0001 4.58333 22.0001C8.62675 22.0001 11.9167 25.2901 11.9167 29.3335V30.6728C13.5401 30.0925 16.6806 29.3335 22 29.3335C27.3194 29.3335 30.4599 30.0925 32.0833 30.6728V29.3335C32.0833 25.2901 35.3733 22.0001 39.4167 22.0001C41.9439 22.0001 44 24.0562 44 26.5835C44 28.4407 42.8927 30.1026 41.1776 30.8158C40.6652 31.0303 40.3333 31.528 40.3333 32.0835V35.7502C40.3333 39.2876 37.455 42.1669 33.9167 42.1669ZM4.58333 23.8335C3.06717 23.8335 1.83333 25.0673 1.83333 26.5835C1.83333 27.6982 2.49792 28.6955 3.52733 29.1236C4.72542 29.6222 5.5 30.7846 5.5 32.0835V35.7502C5.5 38.2775 7.55608 40.3336 10.0833 40.3336H33.9167C36.4439 40.3336 38.5 38.2775 38.5 35.7502V32.0835C38.5 30.7855 39.2746 29.6232 40.4727 29.1236C41.5021 28.6955 42.1667 27.6982 42.1667 26.5835C42.1667 25.0673 40.9328 23.8335 39.4167 23.8335C36.3834 23.8335 33.9167 26.3002 33.9167 29.3335V33.7959L32.4912 32.8462C32.4738 32.8343 29.7578 31.1668 22 31.1668C14.2423 31.1668 11.5262 32.8343 11.4996 32.8517L10.0916 33.7473L10.0833 29.3335C10.0833 26.3002 7.61658 23.8335 4.58333 23.8335Z" fill="black"/>
<path d="M26.5862 19.2501C26.3515 19.2501 26.1168 19.1603 25.9381 18.9816L24.1048 17.1482C23.7463 16.7898 23.7463 16.2105 24.1048 15.852L25.9381 14.0187C26.2965 13.6603 26.8758 13.6603 27.2343 14.0187C27.5927 14.3771 27.5927 14.9564 27.2343 15.3149L26.049 16.5001L27.2343 17.6854C27.5927 18.0438 27.5927 18.6231 27.2343 18.9816C27.0555 19.1603 26.8208 19.2501 26.5862 19.2501Z" fill="black"/>
<path d="M17.4169 19.2501C17.1822 19.2501 16.9476 19.1603 16.7688 18.9816C16.4104 18.6231 16.4104 18.0438 16.7688 17.6854L17.9541 16.5001L16.7688 15.3149C16.4104 14.9564 16.4104 14.3771 16.7688 14.0187C17.1272 13.6603 17.7066 13.6603 18.065 14.0187L19.8983 15.852C20.2567 16.2105 20.2567 16.7898 19.8983 17.1482L18.065 18.9816C17.8862 19.1603 17.6516 19.2501 17.4169 19.2501Z" fill="black"/>
<path d="M22.0026 20.1665C19.9804 20.1665 18.3359 18.522 18.3359 16.4998C18.3359 14.4776 19.9804 12.8331 22.0026 12.8331C24.0248 12.8331 25.6693 14.4776 25.6693 16.4998C25.6693 18.522 24.0248 20.1665 22.0026 20.1665ZM22.0026 14.6665C20.9915 14.6665 20.1693 15.4887 20.1693 16.4998C20.1693 17.5109 20.9915 18.3332 22.0026 18.3332C23.0137 18.3332 23.8359 17.5109 23.8359 16.4998C23.8359 15.4887 23.0137 14.6665 22.0026 14.6665Z" fill="black"/>
</svg>
