<svg width="36" height="36" viewBox="0 0 36 36" fill="none" xmlns="http://www.w3.org/2000/svg">
<g clip-path="url(#clip0_2751_61580)">
<path d="M35.0049 18.437C35.0049 8.77196 27.1699 0.936951 17.5049 0.936951C7.83989 0.936951 0.00488281 8.77196 0.00488281 18.437C0.00488281 27.1716 6.40435 34.4115 14.7705 35.7244V23.4955H10.3271V18.437H14.7705V14.5815C14.7705 10.1955 17.3832 7.77289 21.3805 7.77289C23.2946 7.77289 25.2979 8.11469 25.2979 8.11469V12.4213H23.0912C20.9174 12.4213 20.2393 13.7704 20.2393 15.1557V18.437H25.0928L24.3169 23.4955H20.2393V35.7244C28.6054 34.4115 35.0049 27.1716 35.0049 18.437Z" fill="white"/>
</g>
<defs>
<clipPath id="clip0_2751_61580">
<rect width="35" height="35" fill="white" transform="translate(0.00488281 0.936951)"/>
</clipPath>
</defs>
</svg>
