<svg width="20" height="18" viewBox="0 0 20 18" fill="none" xmlns="http://www.w3.org/2000/svg">
<path fill-rule="evenodd" clip-rule="evenodd" d="M12.0252 3.0251C12.0251 3.02511 12.0251 3.02512 12.0251 3.02513L10.7072 4.34317C10.5197 4.53072 10.2653 4.63609 10.0001 4.63609C9.73485 4.6361 9.48049 4.53074 9.29295 4.3432L7.97487 3.02513C6.60804 1.65829 4.39196 1.65829 3.02513 3.02513C1.65829 4.39196 1.65829 6.60804 3.02513 7.97487L10 14.9498L16.9749 7.97488L17.682 8.68198L16.9749 7.97487C18.3417 6.60804 18.3417 4.39196 16.9749 3.02513C15.608 1.6583 13.392 1.65829 12.0252 3.0251ZM10.6109 1.61091C12.7588 -0.536971 16.2412 -0.536971 18.3891 1.61091C20.537 3.7588 20.537 7.2412 18.3891 9.38909L10.7072 17.0711C10.5196 17.2587 10.2653 17.364 10.0001 17.364C9.73484 17.364 9.48048 17.2587 9.29295 17.0711L1.61091 9.38909C-0.536971 7.2412 -0.536971 3.7588 1.61091 1.61091C3.7588 -0.536971 7.2412 -0.536971 9.38909 1.61091L10 2.22185L10.6109 1.61094L10.6109 1.61091Z" fill="black"/>
</svg>
