<svg width="46" height="46" viewBox="0 0 46 46" fill="none" xmlns="http://www.w3.org/2000/svg">
<path d="M36.3636 27.0807C36.3158 27.0807 36.268 27.077 36.2202 27.0695C35.7083 26.9908 35.3577 26.5117 35.4364 25.9998L37.1924 14.5848C37.6499 11.6073 36.7883 8.58856 34.8271 6.30294C32.8649 4.01637 30.0121 2.70575 26.9999 2.70575H19.4764C16.4642 2.70575 13.6114 4.01637 11.6492 6.30387C9.68799 8.5895 8.8255 11.6082 9.28393 14.5857L11.0399 26.0007C11.1186 26.5126 10.7671 26.9917 10.2561 27.0704C9.74518 27.1436 9.26518 26.7986 9.18737 26.2867L7.4305 14.8717C6.88862 11.3523 7.90862 7.78419 10.2261 5.08325C12.5436 2.38044 15.9149 0.83075 19.4755 0.83075H26.9989C30.5596 0.83075 33.9308 2.38044 36.2483 5.08231C38.5667 7.78419 39.5858 11.3523 39.0439 14.8707L37.288 26.2857C37.2177 26.7489 36.8183 27.0807 36.3636 27.0807Z" fill="white"/>
<path d="M11.9883 45.8306C11.4708 45.8306 11.0508 45.4115 11.0508 44.8931V43.0181C11.0508 42.4996 11.4708 42.0806 11.9883 42.0806C12.5058 42.0806 12.9258 42.4996 12.9258 43.0181V44.8931C12.9258 45.4115 12.5058 45.8306 11.9883 45.8306Z" fill="white"/>
<path d="M34.4893 45.8306C33.9718 45.8306 33.5518 45.4115 33.5518 44.8931V43.0181C33.5518 42.4996 33.9718 42.0806 34.4893 42.0806C35.0068 42.0806 35.4268 42.4996 35.4268 43.0181V44.8931C35.4268 45.4115 35.0068 45.8306 34.4893 45.8306Z" fill="white"/>
<path d="M35.4248 43.9558H11.0498C7.43105 43.9558 4.4873 41.0111 4.4873 37.3933V33.6433C4.4873 33.0752 4.14793 32.5661 3.62387 32.3467C1.8698 31.6164 0.737305 29.9167 0.737305 28.0183C0.737305 25.4336 2.84012 23.3308 5.4248 23.3308C9.56012 23.3308 12.9248 26.6955 12.9248 30.8308V32.2005C14.5851 31.6071 17.797 30.8308 23.2373 30.8308C28.6776 30.8308 31.8895 31.6071 33.5498 32.2005V30.8308C33.5498 26.6955 36.9145 23.3308 41.0498 23.3308C43.6345 23.3308 45.7373 25.4336 45.7373 28.0183C45.7373 29.9177 44.6048 31.6174 42.8507 32.3467C42.3267 32.5661 41.9873 33.0752 41.9873 33.6433V37.3933C41.9873 41.0111 39.0436 43.9558 35.4248 43.9558ZM5.4248 25.2058C3.87418 25.2058 2.6123 26.4677 2.6123 28.0183C2.6123 29.1583 3.29199 30.1783 4.3448 30.6161C5.57012 31.1261 6.3623 32.3149 6.3623 33.6433V37.3933C6.3623 39.978 8.46512 42.0808 11.0498 42.0808H35.4248C38.0095 42.0808 40.1123 39.978 40.1123 37.3933V33.6433C40.1123 32.3158 40.9045 31.1271 42.1298 30.6161C43.1826 30.1783 43.8623 29.1583 43.8623 28.0183C43.8623 26.4677 42.6004 25.2058 41.0498 25.2058C37.9476 25.2058 35.4248 27.7286 35.4248 30.8308V35.3946L33.967 34.4233C33.9492 34.4111 31.1714 32.7058 23.2373 32.7058C15.3032 32.7058 12.5254 34.4111 12.4982 34.4289L11.0582 35.3449L11.0498 30.8308C11.0498 27.7286 8.52699 25.2058 5.4248 25.2058Z" fill="white"/>
<path d="M27.925 20.5182C27.685 20.5182 27.445 20.4263 27.2622 20.2435L25.3872 18.3685C25.0207 18.0019 25.0207 17.4094 25.3872 17.0429L27.2622 15.1679C27.6288 14.8013 28.2213 14.8013 28.5879 15.1679C28.9544 15.5344 28.9544 16.1269 28.5879 16.4935L27.3757 17.7057L28.5879 18.9179C28.9544 19.2844 28.9544 19.8769 28.5879 20.2435C28.405 20.4263 28.165 20.5182 27.925 20.5182Z" fill="white"/>
<path d="M18.55 20.5182C18.31 20.5182 18.07 20.4264 17.8872 20.2436C17.5207 19.877 17.5207 19.2845 17.8872 18.9179L19.0994 17.7057L17.8872 16.4936C17.5207 16.127 17.5207 15.5345 17.8872 15.1679C18.2538 14.8014 18.8463 14.8014 19.2129 15.1679L21.0879 17.0429C21.4544 17.4095 21.4544 18.002 21.0879 18.3686L19.2129 20.2436C19.03 20.4264 18.79 20.5182 18.55 20.5182Z" fill="white"/>
<path d="M23.2373 21.4555C21.1692 21.4555 19.4873 19.7736 19.4873 17.7055C19.4873 15.6374 21.1692 13.9555 23.2373 13.9555C25.3054 13.9555 26.9873 15.6374 26.9873 17.7055C26.9873 19.7736 25.3054 21.4555 23.2373 21.4555ZM23.2373 15.8305C22.2032 15.8305 21.3623 16.6714 21.3623 17.7055C21.3623 18.7396 22.2032 19.5805 23.2373 19.5805C24.2714 19.5805 25.1123 18.7396 25.1123 17.7055C25.1123 16.6714 24.2714 15.8305 23.2373 15.8305Z" fill="white"/>
</svg>
