<svg width="36" height="36" viewBox="0 0 36 36" fill="none" xmlns="http://www.w3.org/2000/svg">
<g clip-path="url(#clip0_2751_61582)">
<path d="M17.9043 4.08832C22.5801 4.08832 23.1338 4.10883 24.9727 4.19086C26.6816 4.26605 27.6045 4.55316 28.2197 4.79242C29.0332 5.10687 29.6211 5.48968 30.2295 6.09808C30.8447 6.71332 31.2207 7.29437 31.5352 8.10785C31.7744 8.72308 32.0615 9.65277 32.1367 11.3549C32.2188 13.2006 32.2393 13.7543 32.2393 18.4233C32.2393 23.0991 32.2188 23.6528 32.1367 25.4916C32.0615 27.2006 31.7744 28.1235 31.5352 28.7387C31.2207 29.5522 30.8379 30.1401 30.2295 30.7485C29.6143 31.3637 29.0332 31.7397 28.2197 32.0541C27.6045 32.2934 26.6748 32.5805 24.9727 32.6557C23.127 32.7377 22.5732 32.7582 17.9043 32.7582C13.2285 32.7582 12.6748 32.7377 10.8359 32.6557C9.12695 32.5805 8.2041 32.2934 7.58887 32.0541C6.77539 31.7397 6.1875 31.3569 5.5791 30.7485C4.96387 30.1332 4.58789 29.5522 4.27344 28.7387C4.03418 28.1235 3.74707 27.1938 3.67188 25.4916C3.58984 23.6459 3.56934 23.0922 3.56934 18.4233C3.56934 13.7475 3.58984 13.1938 3.67188 11.3549C3.74707 9.64593 4.03418 8.72308 4.27344 8.10785C4.58789 7.29437 4.9707 6.70648 5.5791 6.09808C6.19434 5.48285 6.77539 5.10687 7.58887 4.79242C8.2041 4.55316 9.13379 4.26605 10.8359 4.19086C12.6748 4.10883 13.2285 4.08832 17.9043 4.08832ZM17.9043 0.936951C13.1533 0.936951 12.5586 0.957458 10.6924 1.03949C8.83301 1.12152 7.55469 1.4223 6.44727 1.85297C5.29199 2.30414 4.31445 2.89886 3.34375 3.8764C2.36621 4.84711 1.77148 5.82465 1.32031 6.97308C0.889648 8.08734 0.588867 9.35882 0.506836 11.2182C0.424805 13.0912 0.404297 13.686 0.404297 18.4369C0.404297 23.1879 0.424805 23.7827 0.506836 25.6489C0.588867 27.5082 0.889648 28.7866 1.32031 29.894C1.77148 31.0493 2.36621 32.0268 3.34375 32.9975C4.31445 33.9682 5.29199 34.5698 6.44043 35.0141C7.55469 35.4448 8.82617 35.7455 10.6855 35.8276C12.5518 35.9096 13.1465 35.9301 17.8975 35.9301C22.6484 35.9301 23.2432 35.9096 25.1094 35.8276C26.9688 35.7455 28.2471 35.4448 29.3545 35.0141C30.5029 34.5698 31.4805 33.9682 32.4512 32.9975C33.4219 32.0268 34.0234 31.0493 34.4678 29.9008C34.8984 28.7866 35.1992 27.5151 35.2813 25.6557C35.3633 23.7895 35.3838 23.1948 35.3838 18.4438C35.3838 13.6928 35.3633 13.0981 35.2813 11.2319C35.1992 9.3725 34.8984 8.09418 34.4678 6.98676C34.0371 5.82465 33.4424 4.84711 32.4648 3.8764C31.4941 2.9057 30.5166 2.30414 29.3682 1.8598C28.2539 1.42914 26.9824 1.12836 25.123 1.04633C23.25 0.957459 22.6553 0.936951 17.9043 0.936951Z" fill="white"/>
<path d="M17.9043 9.44769C12.9414 9.44769 8.91504 13.4741 8.91504 18.437C8.91504 23.3998 12.9414 27.4262 17.9043 27.4262C22.8672 27.4262 26.8936 23.3998 26.8936 18.437C26.8936 13.4741 22.8672 9.44769 17.9043 9.44769ZM17.9043 24.268C14.6846 24.268 12.0732 21.6567 12.0732 18.437C12.0732 15.2172 14.6846 12.6059 17.9043 12.6059C21.124 12.6059 23.7354 15.2172 23.7354 18.437C23.7354 21.6567 21.124 24.268 17.9043 24.268Z" fill="white"/>
<path d="M29.3477 9.09217C29.3477 10.2543 28.4043 11.1908 27.249 11.1908C26.0869 11.1908 25.1504 10.2474 25.1504 9.09217C25.1504 7.93006 26.0938 6.99353 27.249 6.99353C28.4043 6.99353 29.3477 7.93689 29.3477 9.09217Z" fill="white"/>
</g>
<defs>
<clipPath id="clip0_2751_61582">
<rect width="35" height="35" fill="white" transform="translate(0.404297 0.936951)"/>
</clipPath>
</defs>
</svg>
