<svg width="20" height="20" viewBox="0 0 20 20" fill="none" xmlns="http://www.w3.org/2000/svg">
<path fill-rule="evenodd" clip-rule="evenodd" d="M0 1C0 0.447715 0.447715 0 1 0H3C3.47668 0 3.8871 0.33646 3.98058 0.803884L4.2198 2H19C19.3466 2 19.6684 2.17945 19.8507 2.47427C20.0329 2.76909 20.0494 3.13723 19.8944 3.44721L15.8944 11.4472C15.725 11.786 15.3788 12 15 12H5.41421L3.41421 14L15 14C16.6569 14 18 15.3431 18 17C18 18.6569 16.6569 20 15 20C13.3431 20 12 18.6569 12 17C12 16.6494 12.0602 16.3128 12.1707 16H7.82929C7.93985 16.3128 8 16.6494 8 17C8 18.6569 6.65685 20 5 20C3.34315 20 2 18.6569 2 17C2 16.5239 2.11092 16.0737 2.30832 15.6738C1.3292 15.0233 1.04054 13.5452 2 12.5858L3.91446 10.6713L2.1802 2H1C0.447715 2 0 1.55228 0 1ZM5.8198 10H14.382L17.382 4H4.6198L5.8198 10ZM5 16C4.44772 16 4 16.4477 4 17C4 17.5523 4.44772 18 5 18C5.55228 18 6 17.5523 6 17C6 16.4477 5.55228 16 5 16ZM15 16C14.4477 16 14 16.4477 14 17C14 17.5523 14.4477 18 15 18C15.5523 18 16 17.5523 16 17C16 16.4477 15.5523 16 15 16Z" fill="black"/>
</svg>
