<svg width="36" height="36" viewBox="0 0 36 36" fill="none" xmlns="http://www.w3.org/2000/svg">
<g clip-path="url(#clip0_2751_61583)">
<path fill-rule="evenodd" clip-rule="evenodd" d="M35.6025 18.437C35.6025 28.1019 27.7675 35.937 18.1025 35.937C8.43756 35.937 0.602539 28.1019 0.602539 18.437C0.602539 8.77197 8.43756 0.936951 18.1025 0.936951C27.7675 0.936951 35.6025 8.77197 35.6025 18.437ZM18.7297 13.8562C17.0275 14.5642 13.6257 16.0295 8.52405 18.2522C7.69563 18.5816 7.26166 18.9039 7.22216 19.2191C7.15539 19.7516 7.82233 19.9613 8.73052 20.2469C8.85406 20.2858 8.98206 20.326 9.11328 20.3687C10.0068 20.6591 11.2087 20.9989 11.8336 21.0124C12.4004 21.0247 13.033 20.791 13.7314 20.3114C18.498 17.0938 20.9585 15.4675 21.113 15.4324C21.222 15.4077 21.373 15.3766 21.4753 15.4676C21.5776 15.5585 21.5676 15.7307 21.5567 15.777C21.4907 16.0586 18.8727 18.4925 17.5179 19.752C17.0956 20.1447 16.796 20.4232 16.7347 20.4868C16.5975 20.6293 16.4577 20.7641 16.3233 20.8937C15.4932 21.6939 14.8707 22.294 16.3578 23.2739C17.0724 23.7449 17.6443 24.1343 18.2147 24.5228C18.8378 24.9471 19.4592 25.3702 20.2632 25.8973C20.4681 26.0316 20.6637 26.171 20.8542 26.3069C21.5793 26.8238 22.2307 27.2882 23.0355 27.2141C23.5031 27.1711 23.9861 26.7314 24.2314 25.42C24.8112 22.3207 25.9507 15.6055 26.2141 12.8384C26.2372 12.5959 26.2082 12.2857 26.1848 12.1495C26.1615 12.0133 26.1128 11.8192 25.9358 11.6755C25.7261 11.5054 25.4024 11.4695 25.2577 11.4721C24.5994 11.4837 23.5896 11.8348 18.7297 13.8562Z" fill="white"/>
</g>
<defs>
<clipPath id="clip0_2751_61583">
<rect width="35" height="35" fill="white" transform="translate(0.602539 0.936951)"/>
</clipPath>
</defs>
</svg>
