<svg width="36" height="36" viewBox="0 0 36 36" fill="none" xmlns="http://www.w3.org/2000/svg">
<g clip-path="url(#clip0_2751_61581)">
<path d="M11.2138 32.6558C24.4181 32.6558 31.6423 21.7135 31.6423 12.2273C31.6423 11.9196 31.6354 11.6052 31.6218 11.2976C33.0271 10.2813 34.2399 9.02241 35.2031 7.58019C33.8943 8.1625 32.5047 8.54281 31.0817 8.70812C32.58 7.81003 33.7018 6.39919 34.2393 4.73712C32.8298 5.57244 31.2883 6.16168 29.6811 6.4796C28.5981 5.3289 27.1662 4.567 25.6068 4.3117C24.0474 4.0564 22.4474 4.32191 21.054 5.06718C19.6606 5.81246 18.5516 6.99599 17.8983 8.43479C17.2451 9.87359 17.084 11.4875 17.4399 13.0271C14.5859 12.8838 11.7939 12.1424 9.24477 10.8509C6.69566 9.55943 4.44643 7.74664 2.64287 5.53009C1.72621 7.11052 1.44571 8.98069 1.85838 10.7605C2.27105 12.5403 3.34592 14.0962 4.86455 15.112C3.72446 15.0758 2.60934 14.7689 1.61133 14.2165V14.3054C1.61031 15.9639 2.18368 17.5716 3.23399 18.8552C4.2843 20.1388 5.74672 21.0191 7.37266 21.3464C6.31654 21.6354 5.2081 21.6775 4.13311 21.4694C4.59191 22.8958 5.48459 24.1433 6.68654 25.0379C7.8885 25.9325 9.33976 26.4296 10.8378 26.4597C8.29458 28.4574 5.15296 29.541 1.91895 29.5359C1.34542 29.535 0.772457 29.4998 0.203125 29.4306C3.48854 31.5383 7.31036 32.6578 11.2138 32.6558Z" fill="white"/>
</g>
<defs>
<clipPath id="clip0_2751_61581">
<rect width="35" height="35" fill="white" transform="translate(0.203125 0.936951)"/>
</clipPath>
</defs>
</svg>
